<svg width="50" height="50" viewBox="0 0 50 50" fill="none" xmlns="http://www.w3.org/2000/svg">
<circle cx="25" cy="25" r="25" fill="url(#paint0_linear_1272_3448)"/>
<path d="M19.751 34.75C19.5521 34.75 19.3613 34.671 19.2206 34.5303C19.08 34.3897 19.001 34.1989 19.001 34V31H17.876C16.9812 30.999 16.1233 30.6431 15.4906 30.0104C14.8579 29.3777 14.502 28.5198 14.501 27.625V18.625C14.502 17.7302 14.8579 16.8723 15.4906 16.2396C16.1233 15.6069 16.9812 15.251 17.876 15.25H32.126C33.0208 15.251 33.8786 15.6069 34.5114 16.2396C35.1441 16.8723 35.5 17.7302 35.501 18.625V27.625C35.5 28.5198 35.1441 29.3777 34.5114 30.0104C33.8786 30.6431 33.0208 30.999 32.126 31H24.52L20.2314 34.5761C20.0965 34.6883 19.9265 34.7499 19.751 34.75V34.75Z" fill="white"/>
<defs>
<linearGradient id="paint0_linear_1272_3448" x1="50" y1="0" x2="0" y2="50" gradientUnits="userSpaceOnUse">
<stop stop-color="#BB65FF"/>
<stop offset="1" stop-color="#4C6FFF"/>
</linearGradient>
</defs>
</svg>
