<svg width="24" height="24" viewBox="0 0 24 24" fill="none" xmlns="http://www.w3.org/2000/svg">
<path d="M6.75098 21.75C6.55206 21.75 6.3613 21.671 6.22065 21.5303C6.07999 21.3897 6.00098 21.1989 6.00098 21V18H4.87598C3.98118 17.999 3.12331 17.6431 2.49059 17.0104C1.85787 16.3777 1.50197 15.5198 1.50098 14.625V5.625C1.50197 4.7302 1.85787 3.87233 2.49059 3.23961C3.12331 2.60689 3.98118 2.25099 4.87598 2.25H19.126C20.0208 2.25099 20.8786 2.60689 21.5114 3.23961C22.1441 3.87233 22.5 4.7302 22.501 5.625V14.625C22.5 15.5198 22.1441 16.3777 21.5114 17.0104C20.8786 17.6431 20.0208 17.999 19.126 18H11.52L7.23144 21.5761C7.09648 21.6883 6.92652 21.7499 6.75098 21.75V21.75Z" fill="white"/>
</svg>
