<svg width="24" height="24" viewBox="0 0 24 24" fill="none" xmlns="http://www.w3.org/2000/svg">
<path d="M13.5909 11.9995L18.0441 7.54639C18.2554 7.33541 18.3743 7.04913 18.3745 6.7505C18.3748 6.45188 18.2564 6.16539 18.0455 5.95404C17.8345 5.7427 17.5482 5.62382 17.2496 5.62355C16.951 5.62329 16.6645 5.74166 16.4531 5.95264L12 10.4058L7.54687 5.95264C7.33553 5.74129 7.04888 5.62256 6.75 5.62256C6.45111 5.62256 6.16447 5.74129 5.95312 5.95264C5.74178 6.16398 5.62305 6.45062 5.62305 6.74951C5.62305 7.0484 5.74178 7.33504 5.95312 7.54639L10.4062 11.9995L5.95312 16.4526C5.74178 16.664 5.62305 16.9506 5.62305 17.2495C5.62305 17.5484 5.74178 17.835 5.95312 18.0464C6.16447 18.2577 6.45111 18.3765 6.75 18.3765C7.04888 18.3765 7.33553 18.2577 7.54687 18.0464L12 13.5933L16.4531 18.0464C16.6645 18.2577 16.9511 18.3765 17.25 18.3765C17.5489 18.3765 17.8355 18.2577 18.0469 18.0464C18.2582 17.835 18.3769 17.5484 18.3769 17.2495C18.3769 16.9506 18.2582 16.664 18.0469 16.4526L13.5909 11.9995Z" fill="white"/>
</svg>
