<svg width="30" height="30" viewBox="0 0 30 30" fill="none" xmlns="http://www.w3.org/2000/svg">
<path d="M14.999 1.875C7.75098 1.875 1.87402 7.9043 1.87402 15.334C1.87402 21.2813 5.63574 26.3203 10.8506 28.1016C10.9237 28.1175 10.9984 28.1253 11.0732 28.125C11.5596 28.125 11.7471 27.7676 11.7471 27.457C11.7471 27.1348 11.7354 26.291 11.7295 25.166C11.2953 25.2678 10.8512 25.3209 10.4053 25.3242C7.87988 25.3242 7.30566 23.3613 7.30566 23.3613C6.70801 21.8086 5.84668 21.3926 5.84668 21.3926C4.7041 20.5898 5.84082 20.5664 5.92871 20.5664H5.93457C7.25293 20.6836 7.94434 21.9609 7.94434 21.9609C8.60059 23.1094 9.47949 23.4316 10.2646 23.4316C10.7838 23.4213 11.2949 23.3015 11.7646 23.0801C11.8818 22.2129 12.2217 21.6211 12.5967 21.2813C9.68457 20.9414 6.62012 19.7871 6.62012 14.6309C6.62012 13.1602 7.12988 11.959 7.96777 11.0215C7.83301 10.6816 7.38184 9.31055 8.09668 7.45898C8.19257 7.43604 8.29112 7.42619 8.38965 7.42969C8.86426 7.42969 9.93652 7.61133 11.7061 8.8418C13.8562 8.24022 16.1302 8.24022 18.2803 8.8418C20.0498 7.61133 21.1221 7.42969 21.5967 7.42969C21.6952 7.42619 21.7938 7.43604 21.8896 7.45898C22.6045 9.31055 22.1533 10.6816 22.0186 11.0215C22.8564 11.9648 23.3662 13.166 23.3662 14.6309C23.3662 19.7988 20.2959 20.9355 17.3721 21.2695C17.8408 21.6855 18.2627 22.5059 18.2627 23.7598C18.2627 25.5586 18.2451 27.0117 18.2451 27.4512C18.2451 27.7676 18.4268 28.125 18.9131 28.125C18.9918 28.1253 19.0704 28.1175 19.1475 28.1016C24.3682 26.3203 28.124 21.2754 28.124 15.334C28.124 7.9043 22.2471 1.875 14.999 1.875Z" fill="white"/>
</svg>
