<svg width="30" height="30" viewBox="0 0 30 30" fill="none" xmlns="http://www.w3.org/2000/svg">
<path d="M20.4686 4.05913C21.9177 4.06346 23.3063 4.64106 24.331 5.66579C25.3558 6.69051 25.9334 8.0791 25.9377 9.52827V20.4654C25.9334 21.9146 25.3558 23.3031 24.331 24.3279C23.3063 25.3526 21.9177 25.9302 20.4686 25.9345H9.53144C8.08227 25.9302 6.69369 25.3526 5.66896 24.3279C4.64423 23.3031 4.06663 21.9146 4.0623 20.4654V9.52827C4.06663 8.0791 4.64423 6.69051 5.66896 5.66579C6.69369 4.64106 8.08227 4.06346 9.53144 4.05913H20.4686V4.05913ZM20.4686 1.87183H9.53144C5.32031 1.87183 1.875 5.31714 1.875 9.52827V20.4654C1.875 24.6765 5.32031 28.1218 9.53144 28.1218H20.4686C24.6797 28.1218 28.125 24.6765 28.125 20.4654V9.52827C28.125 5.31714 24.6797 1.87183 20.4686 1.87183V1.87183Z" fill="white"/>
<path d="M22.1094 9.52783C21.7849 9.52783 21.4677 9.43161 21.1979 9.25134C20.9281 9.07106 20.7178 8.81483 20.5936 8.51505C20.4695 8.21526 20.437 7.88539 20.5003 7.56714C20.5636 7.24889 20.7198 6.95656 20.9493 6.72711C21.1787 6.49766 21.4711 6.34141 21.7893 6.27811C22.1076 6.2148 22.4374 6.24729 22.7372 6.37147C23.037 6.49564 23.2932 6.70593 23.4735 6.97573C23.6538 7.24552 23.75 7.56272 23.75 7.88721C23.7505 8.10279 23.7083 8.31634 23.6261 8.5156C23.5438 8.71485 23.4229 8.8959 23.2705 9.04834C23.1181 9.20078 22.937 9.32161 22.7378 9.40389C22.5385 9.48618 22.325 9.5283 22.1094 9.52783V9.52783Z" fill="white"/>
<path d="M15 10.6216C15.8653 10.6216 16.7112 10.8782 17.4307 11.359C18.1502 11.8397 18.711 12.523 19.0422 13.3225C19.3733 14.122 19.4599 15.0017 19.2911 15.8504C19.1223 16.6991 18.7056 17.4787 18.0937 18.0906C17.4819 18.7024 16.7023 19.1191 15.8536 19.288C15.0049 19.4568 14.1252 19.3701 13.3257 19.039C12.5262 18.7078 11.8429 18.1471 11.3622 17.4276C10.8814 16.7081 10.6248 15.8622 10.6248 14.9968C10.626 13.8368 11.0874 12.7247 11.9076 11.9045C12.7279 11.0842 13.84 10.6229 15 10.6216V10.6216ZM15 8.43433C13.7021 8.43433 12.4333 8.81921 11.3541 9.54031C10.2749 10.2614 9.43374 11.2863 8.93704 12.4855C8.44034 13.6846 8.31038 15.0041 8.5636 16.2771C8.81682 17.5501 9.44183 18.7194 10.3596 19.6372C11.2774 20.555 12.4467 21.18 13.7197 21.4332C14.9927 21.6864 16.3122 21.5565 17.5114 21.0598C18.7105 20.5631 19.7354 19.722 20.4565 18.6428C21.1776 17.5636 21.5625 16.2948 21.5625 14.9968C21.5625 13.2563 20.8711 11.5871 19.6404 10.3564C18.4097 9.12573 16.7405 8.43433 15 8.43433V8.43433Z" fill="white"/>
</svg>
