<svg width="30" height="30" viewBox="0 0 30 30" fill="none" xmlns="http://www.w3.org/2000/svg">
<path d="M19.6876 19.6881H1.87514C1.71148 19.6885 1.55058 19.646 1.40843 19.5649C1.26629 19.4838 1.14785 19.3669 1.0649 19.2258C0.981945 19.0847 0.937369 18.9244 0.935602 18.7607C0.933834 18.5971 0.974937 18.4358 1.05482 18.293L9.96107 2.35547C10.0424 2.20979 10.1612 2.08845 10.3051 2.00399C10.4489 1.91953 10.6128 1.875 10.7796 1.875C10.9465 1.875 11.1103 1.91953 11.2542 2.00399C11.3981 2.08845 11.5168 2.20979 11.5982 2.35547L20.5044 18.293C20.5842 18.4355 20.6253 18.5965 20.6237 18.7598C20.6221 18.9232 20.5778 19.0833 20.4952 19.2243C20.4127 19.3652 20.2948 19.4822 20.1531 19.5636C20.0115 19.6449 19.851 19.6878 19.6876 19.6881Z" fill="white"/>
<path d="M19.6867 9.375C19.0456 9.37486 18.4062 9.44004 17.7783 9.56953L22.1418 17.3783C22.3809 17.8064 22.504 18.2895 22.4988 18.7798C22.4936 19.27 22.3604 19.7504 22.1122 20.1733C21.8641 20.5962 21.5097 20.9469 21.0843 21.1906C20.6588 21.4342 20.177 21.5625 19.6867 21.5625H10.7412C11.261 23.2153 12.2287 24.6918 13.5368 25.8279C14.8449 26.9641 16.4422 27.7155 18.1515 27.9988C19.8609 28.2821 21.6152 28.0862 23.2199 27.4328C24.8246 26.7794 26.2169 25.694 27.2421 24.2973C28.2673 22.9005 28.8854 21.2469 29.0277 19.5202C29.17 17.7934 28.8311 16.061 28.0484 14.5152C27.2658 12.9694 26.07 11.6707 24.594 10.7634C23.118 9.856 21.4193 9.37543 19.6867 9.375Z" fill="white"/>
</svg>
