<svg width="25" height="24" viewBox="0 0 25 24" fill="none" xmlns="http://www.w3.org/2000/svg">
<g clip-path="url(#clip0_1204_2103)">
<path d="M10.25 23.9994C10.013 24.0006 9.78125 23.9294 9.58575 23.7954C9.39025 23.6614 9.24031 23.4709 9.15596 23.2494L7.28846 18.3932C7.25063 18.2953 7.19277 18.2064 7.11859 18.1322C7.0444 18.0581 6.95553 18.0002 6.85768 17.9624L2.00002 16.0935C1.77874 16.0085 1.58842 15.8585 1.45417 15.6632C1.31992 15.4679 1.24805 15.2364 1.24805 14.9994C1.24805 14.7624 1.31992 14.531 1.45417 14.3356C1.58842 14.1403 1.77874 13.9903 2.00002 13.9053L6.85627 12.0378C6.95413 12 7.043 11.9422 7.11718 11.868C7.19137 11.7938 7.24923 11.7049 7.28705 11.6071L9.15596 6.74941C9.24088 6.52813 9.39091 6.33781 9.58624 6.20356C9.78156 6.0693 10.013 5.99744 10.25 5.99744C10.487 5.99744 10.7185 6.0693 10.9138 6.20356C11.1091 6.33781 11.2592 6.52813 11.3441 6.74941L13.2116 11.6057C13.2494 11.7035 13.3073 11.7924 13.3814 11.8666C13.4556 11.9408 13.5445 11.9986 13.6424 12.0364L18.4705 13.8941C18.7008 13.9795 18.8992 14.1337 19.0386 14.3358C19.1781 14.538 19.2519 14.7782 19.25 15.0238C19.2464 15.2567 19.173 15.4831 19.0393 15.6738C18.9056 15.8645 18.7177 16.0107 18.5 16.0935L13.6438 17.961C13.5459 17.9988 13.457 18.0567 13.3829 18.1308C13.3087 18.205 13.2508 18.2939 13.213 18.3918L11.3441 23.2494C11.2597 23.4709 11.1098 23.6614 10.9143 23.7954C10.7188 23.9294 10.487 24.0006 10.25 23.9994V23.9994Z" fill="url(#paint0_linear_1204_2103)"/>
<path d="M4.62491 8.24987C4.48595 8.24986 4.35026 8.20776 4.2357 8.1291C4.12115 8.05044 4.03311 7.93893 3.98319 7.80925L3.19288 5.75425C3.17575 5.7093 3.14931 5.66849 3.1153 5.63448C3.0813 5.60047 3.04048 5.57403 2.99554 5.5569L0.940537 4.76659C0.81087 4.71666 0.699373 4.62861 0.620733 4.51406C0.542093 4.39951 0.5 4.26382 0.5 4.12487C0.5 3.98592 0.542093 3.85023 0.620733 3.73568C0.699373 3.62113 0.81087 3.53308 0.940537 3.48315L2.99554 2.69284C3.04044 2.67563 3.08121 2.64917 3.11521 2.61517C3.14921 2.58117 3.17567 2.54039 3.19288 2.4955L3.97616 0.458777C4.02034 0.338871 4.09635 0.233271 4.19603 0.153325C4.29572 0.0733783 4.41531 0.0221089 4.54194 0.00502661C4.69398 -0.0134561 4.84784 0.0193464 4.97912 0.0982325C5.1104 0.177119 5.21158 0.297573 5.26663 0.440495L6.05694 2.4955C6.07415 2.54039 6.10061 2.58117 6.13461 2.61517C6.16861 2.64917 6.20939 2.67563 6.25429 2.69284L8.30929 3.48315C8.43895 3.53308 8.55045 3.62113 8.62909 3.73568C8.70773 3.85023 8.74982 3.98592 8.74982 4.12487C8.74982 4.26382 8.70773 4.39951 8.62909 4.51406C8.55045 4.62861 8.43895 4.71666 8.30929 4.76659L6.25429 5.5569C6.20934 5.57403 6.16853 5.60047 6.13452 5.63448C6.10051 5.66849 6.07407 5.7093 6.05694 5.75425L5.26663 7.80925C5.21671 7.93893 5.12867 8.05044 5.01412 8.1291C4.89957 8.20776 4.76387 8.24986 4.62491 8.24987V8.24987Z" fill="url(#paint1_linear_1204_2103)"/>
<path d="M19.2504 12.0003C19.0988 12.0002 18.9508 11.9543 18.8258 11.8684C18.7009 11.7825 18.6049 11.6608 18.5505 11.5193L17.4799 8.73637C17.4611 8.68733 17.4321 8.6428 17.395 8.60565C17.3579 8.56851 17.3133 8.53958 17.2643 8.52075L14.4813 7.45012C14.3399 7.39564 14.2184 7.29962 14.1326 7.17469C14.0469 7.04977 14.001 6.9018 14.001 6.75028C14.001 6.59876 14.0469 6.45079 14.1326 6.32587C14.2184 6.20094 14.3399 6.10492 14.4813 6.05044L17.2643 4.97981C17.3133 4.96098 17.3579 4.93205 17.395 4.89491C17.4321 4.85776 17.4611 4.81323 17.4799 4.76419L18.5426 2.00091C18.5911 1.87023 18.6741 1.75515 18.7828 1.66791C18.8915 1.58066 19.0218 1.52451 19.1599 1.50544C19.3258 1.48535 19.4937 1.52126 19.6369 1.60745C19.78 1.69365 19.8903 1.8252 19.9502 1.98122L21.0208 4.76419C21.0397 4.81323 21.0686 4.85776 21.1058 4.89491C21.1429 4.93205 21.1874 4.96098 21.2365 4.97981L24.0194 6.05044C24.1608 6.10492 24.2824 6.20094 24.3681 6.32587C24.4539 6.45079 24.4998 6.59876 24.4998 6.75028C24.4998 6.9018 24.4539 7.04977 24.3681 7.17469C24.2824 7.29962 24.1608 7.39564 24.0194 7.45012L21.2365 8.52075C21.1874 8.53958 21.1429 8.56851 21.1058 8.60565C21.0686 8.6428 21.0397 8.68733 21.0208 8.73637L19.9502 11.5193C19.8958 11.6608 19.7999 11.7825 19.6749 11.8684C19.55 11.9543 19.402 12.0002 19.2504 12.0003V12.0003Z" fill="url(#paint2_linear_1204_2103)"/>
</g>
<defs>
<linearGradient id="paint0_linear_1204_2103" x1="19.2659" y1="3.36242" x2="11.3462" y2="26.4248" gradientUnits="userSpaceOnUse">
<stop stop-color="#AE66FF"/>
<stop offset="1" stop-color="#4C6FFF"/>
</linearGradient>
<linearGradient id="paint1_linear_1204_2103" x1="8.75708" y1="-1.20756" x2="5.12765" y2="9.36134" gradientUnits="userSpaceOnUse">
<stop stop-color="#AE66FF"/>
<stop offset="1" stop-color="#4C6FFF"/>
</linearGradient>
<linearGradient id="paint2_linear_1204_2103" x1="24.509" y1="-0.0369646" x2="19.889" y2="13.4145" gradientUnits="userSpaceOnUse">
<stop stop-color="#AE66FF"/>
<stop offset="1" stop-color="#4C6FFF"/>
</linearGradient>
<clipPath id="clip0_1204_2103">
<rect width="24" height="24" fill="white" transform="translate(0.5)"/>
</clipPath>
</defs>
</svg>
