<svg width="30" height="30" viewBox="0 0 30 30" fill="none" xmlns="http://www.w3.org/2000/svg">
<g clip-path="url(#clip0_1222_2154)">
<path d="M12.188 29.999C11.8917 30.0005 11.6021 29.9116 11.3577 29.7441C11.1133 29.5765 10.9259 29.3384 10.8204 29.0615L8.48606 22.9912C8.43878 22.8689 8.36646 22.7578 8.27372 22.6651C8.18099 22.5724 8.06991 22.5 7.94758 22.4528L1.87551 20.1166C1.59892 20.0105 1.36101 19.8229 1.1932 19.5788C1.02538 19.3346 0.935547 19.0453 0.935547 18.749C0.935547 18.4528 1.02538 18.1635 1.1932 17.9193C1.36101 17.6752 1.59892 17.4876 1.87551 17.3815L7.94583 15.0471C8.06815 14.9998 8.17924 14.9275 8.27197 14.8348C8.3647 14.742 8.43702 14.6309 8.4843 14.5086L10.8204 8.43655C10.9266 8.15995 11.1141 7.92205 11.3583 7.75423C11.6024 7.58642 11.8917 7.49658 12.188 7.49658C12.4843 7.49658 12.7736 7.58642 13.0177 7.75423C13.2619 7.92205 13.4494 8.15995 13.5556 8.43655L15.89 14.5069C15.9372 14.6292 16.0096 14.7403 16.1023 14.833C16.195 14.9257 16.3061 14.9981 16.4284 15.0453L22.4636 17.3674C22.7515 17.4741 22.9994 17.6669 23.1738 17.9196C23.3482 18.1723 23.4404 18.4725 23.438 18.7795C23.4335 19.0706 23.3418 19.3537 23.1747 19.5921C23.0075 19.8305 22.7727 20.0132 22.5005 20.1166L16.4302 22.451C16.3079 22.4983 16.1968 22.5706 16.1041 22.6633C16.0113 22.7561 15.939 22.8672 15.8917 22.9895L13.5556 29.0615C13.4502 29.3384 13.2627 29.5765 13.0184 29.7441C12.774 29.9116 12.4843 30.0005 12.188 29.999Z" fill="white"/>
<path d="M5.15614 10.3123C4.98244 10.3123 4.81282 10.2597 4.66963 10.1614C4.52644 10.0631 4.41639 9.92366 4.35399 9.76156L3.3661 7.19281C3.34469 7.13663 3.31164 7.08561 3.26913 7.0431C3.22662 7.00058 3.1756 6.96754 3.11942 6.94613L0.550671 5.95824C0.388588 5.89582 0.249216 5.78577 0.150916 5.64258C0.0526159 5.49938 0 5.32977 0 5.15609C0 4.9824 0.0526159 4.81279 0.150916 4.6696C0.249216 4.52641 0.388588 4.41636 0.550671 4.35394L3.11942 3.36605C3.17554 3.34454 3.22651 3.31146 3.26901 3.26896C3.31151 3.22646 3.34459 3.17549 3.3661 3.11937L4.3452 0.573471C4.40042 0.423589 4.49544 0.291589 4.62004 0.191656C4.74465 0.0917229 4.89413 0.0276361 5.05243 0.00628326C5.24248 -0.0168201 5.4348 0.024183 5.5989 0.122791C5.76299 0.221398 5.88948 0.371966 5.95829 0.550619L6.94618 3.11937C6.96769 3.17549 7.00077 3.22646 7.04327 3.26896C7.08577 3.31146 7.13673 3.34454 7.19286 3.36605L9.76161 4.35394C9.92369 4.41636 10.0631 4.52641 10.1614 4.6696C10.2597 4.81279 10.3123 4.9824 10.3123 5.15609C10.3123 5.32977 10.2597 5.49938 10.1614 5.64258C10.0631 5.78577 9.92369 5.89582 9.76161 5.95824L7.19286 6.94613C7.13668 6.96754 7.08566 7.00058 7.04315 7.0431C7.00064 7.08561 6.96759 7.13663 6.94618 7.19281L5.95829 9.76156C5.89589 9.92366 5.78584 10.0631 5.64265 10.1614C5.49946 10.2597 5.32984 10.3123 5.15614 10.3123Z" fill="white"/>
<path d="M23.4377 15.0003C23.2482 15.0003 23.0632 14.9428 22.907 14.8355C22.7509 14.7282 22.6309 14.5761 22.5629 14.3992L21.2246 10.9205C21.2011 10.8592 21.1649 10.8035 21.1185 10.7571C21.0721 10.7106 21.0164 10.6745 20.9551 10.6509L17.4764 9.31265C17.2997 9.24455 17.1477 9.12452 17.0405 8.96837C16.9333 8.81221 16.876 8.62725 16.876 8.43785C16.876 8.24845 16.9333 8.06349 17.0405 7.90733C17.1477 7.75118 17.2997 7.63114 17.4764 7.56305L20.9551 6.22476C21.0164 6.20122 21.0721 6.16506 21.1185 6.11863C21.1649 6.0722 21.2011 6.01653 21.2246 5.95523L22.553 2.50113C22.6136 2.33779 22.7174 2.19394 22.8533 2.08489C22.9891 1.97583 23.152 1.90564 23.3246 1.8818C23.532 1.85669 23.7419 1.90157 23.9208 2.00932C24.0998 2.11706 24.2377 2.2815 24.3125 2.47652L25.6508 5.95523C25.6744 6.01653 25.7105 6.0722 25.7569 6.11863C25.8034 6.16506 25.859 6.20122 25.9203 6.22476L29.3991 7.56305C29.5758 7.63114 29.7277 7.75118 29.8349 7.90733C29.9421 8.06349 29.9995 8.24845 29.9995 8.43785C29.9995 8.62725 29.9421 8.81221 29.8349 8.96837C29.7277 9.12452 29.5758 9.24455 29.3991 9.31265L25.9203 10.6509C25.859 10.6745 25.8034 10.7106 25.7569 10.7571C25.7105 10.8035 25.6744 10.8592 25.6508 10.9205L24.3125 14.3992C24.2446 14.5761 24.1246 14.7282 23.9684 14.8355C23.8122 14.9428 23.6272 15.0003 23.4377 15.0003Z" fill="white"/>
</g>
<defs>
<clipPath id="clip0_1222_2154">
<rect width="30" height="30" fill="white"/>
</clipPath>
</defs>
</svg>
